<mxfile host="app.diagrams.net" modified="2021-03-30T08:30:29.519Z" agent="5.0 (Windows NT 10.0; Win64; x64) AppleWebKit/537.36 (KHTML, like Gecko) Chrome/89.0.4389.90 Safari/537.36 Edg/89.0.774.63" etag="arepJbVBpYA9TkGxf7Jm" version="14.5.3" type="github">
  <diagram id="kgpKYQtTHZ0yAKxKKP6v" name="Page-1">
    <mxGraphModel dx="782" dy="459" grid="1" gridSize="10" guides="1" tooltips="1" connect="1" arrows="1" fold="1" page="1" pageScale="1" pageWidth="850" pageHeight="1100" math="0" shadow="0">
      <root>
        <mxCell id="0" />
        <mxCell id="1" parent="0" />
        <mxCell id="xruO2TvsmoogrMhLgpVZ-1" value="Backend" style="shape=umlLifeline;perimeter=lifelinePerimeter;container=1;collapsible=0;recursiveResize=0;rounded=0;shadow=0;strokeWidth=1;" vertex="1" parent="1">
          <mxGeometry x="140" y="420" width="100" height="300" as="geometry" />
        </mxCell>
        <mxCell id="xruO2TvsmoogrMhLgpVZ-2" value="" style="points=[];perimeter=orthogonalPerimeter;rounded=0;shadow=0;strokeWidth=1;" vertex="1" parent="xruO2TvsmoogrMhLgpVZ-1">
          <mxGeometry x="45" y="80" width="10" height="90" as="geometry" />
        </mxCell>
        <mxCell id="xruO2TvsmoogrMhLgpVZ-4" value="MachineScan" style="shape=umlLifeline;perimeter=lifelinePerimeter;container=1;collapsible=0;recursiveResize=0;rounded=0;shadow=0;strokeWidth=1;" vertex="1" parent="1">
          <mxGeometry x="425" y="420" width="100" height="300" as="geometry" />
        </mxCell>
        <mxCell id="xruO2TvsmoogrMhLgpVZ-5" value="" style="points=[];perimeter=orthogonalPerimeter;rounded=0;shadow=0;strokeWidth=1;" vertex="1" parent="xruO2TvsmoogrMhLgpVZ-4">
          <mxGeometry x="45" y="125" width="10" height="155" as="geometry" />
        </mxCell>
        <mxCell id="xruO2TvsmoogrMhLgpVZ-6" value="dbManager" style="shape=umlLifeline;perimeter=lifelinePerimeter;container=1;collapsible=0;recursiveResize=0;rounded=0;shadow=0;strokeWidth=1;" vertex="1" parent="1">
          <mxGeometry x="560" y="420" width="100" height="300" as="geometry" />
        </mxCell>
        <mxCell id="xruO2TvsmoogrMhLgpVZ-7" value="" style="points=[];perimeter=orthogonalPerimeter;rounded=0;shadow=0;strokeWidth=1;" vertex="1" parent="xruO2TvsmoogrMhLgpVZ-6">
          <mxGeometry x="45" y="125" width="10" height="75" as="geometry" />
        </mxCell>
        <mxCell id="xruO2TvsmoogrMhLgpVZ-8" value="YTLFFace" style="shape=umlLifeline;perimeter=lifelinePerimeter;container=1;collapsible=0;recursiveResize=0;rounded=0;shadow=0;strokeWidth=1;" vertex="1" parent="1">
          <mxGeometry x="700" y="420" width="100" height="300" as="geometry" />
        </mxCell>
        <mxCell id="xruO2TvsmoogrMhLgpVZ-9" value="" style="points=[];perimeter=orthogonalPerimeter;rounded=0;shadow=0;strokeWidth=1;" vertex="1" parent="xruO2TvsmoogrMhLgpVZ-8">
          <mxGeometry x="45" y="180" width="10" height="81" as="geometry" />
        </mxCell>
        <mxCell id="xruO2TvsmoogrMhLgpVZ-14" value="PersonController" style="shape=umlLifeline;perimeter=lifelinePerimeter;container=1;collapsible=0;recursiveResize=0;rounded=0;shadow=0;strokeWidth=1;" vertex="1" parent="1">
          <mxGeometry x="280" y="420" width="100" height="300" as="geometry" />
        </mxCell>
        <mxCell id="xruO2TvsmoogrMhLgpVZ-15" value="" style="points=[];perimeter=orthogonalPerimeter;rounded=0;shadow=0;strokeWidth=1;" vertex="1" parent="xruO2TvsmoogrMhLgpVZ-14">
          <mxGeometry x="45" y="80" width="10" height="40" as="geometry" />
        </mxCell>
        <mxCell id="xruO2TvsmoogrMhLgpVZ-17" value="Save Person Info to DB" style="html=1;verticalAlign=bottom;endArrow=block;exitX=0.833;exitY=0.05;exitDx=0;exitDy=0;exitPerimeter=0;" edge="1" parent="1" source="xruO2TvsmoogrMhLgpVZ-2" target="xruO2TvsmoogrMhLgpVZ-14">
          <mxGeometry width="80" relative="1" as="geometry">
            <mxPoint x="430" y="590" as="sourcePoint" />
            <mxPoint x="510" y="590" as="targetPoint" />
          </mxGeometry>
        </mxCell>
        <mxCell id="xruO2TvsmoogrMhLgpVZ-18" value="Result Person Data" style="html=1;verticalAlign=bottom;endArrow=block;entryX=0.5;entryY=0.429;entryDx=0;entryDy=0;entryPerimeter=0;" edge="1" parent="1">
          <mxGeometry width="80" relative="1" as="geometry">
            <mxPoint x="325" y="537" as="sourcePoint" />
            <mxPoint x="190" y="537.03" as="targetPoint" />
          </mxGeometry>
        </mxCell>
        <mxCell id="xruO2TvsmoogrMhLgpVZ-19" value="Person Info Data" style="html=1;verticalAlign=bottom;endArrow=block;exitX=0.5;exitY=0.778;exitDx=0;exitDy=0;exitPerimeter=0;" edge="1" parent="1" source="xruO2TvsmoogrMhLgpVZ-2" target="xruO2TvsmoogrMhLgpVZ-4">
          <mxGeometry width="80" relative="1" as="geometry">
            <mxPoint x="420" y="600" as="sourcePoint" />
            <mxPoint x="500" y="600" as="targetPoint" />
          </mxGeometry>
        </mxCell>
        <mxCell id="xruO2TvsmoogrMhLgpVZ-20" value="Mobile" style="html=1;verticalAlign=bottom;startArrow=circle;startFill=1;endArrow=open;startSize=6;endSize=8;" edge="1" parent="1">
          <mxGeometry width="80" relative="1" as="geometry">
            <mxPoint x="100" y="490" as="sourcePoint" />
            <mxPoint x="180" y="490" as="targetPoint" />
          </mxGeometry>
        </mxCell>
        <mxCell id="xruO2TvsmoogrMhLgpVZ-21" value="Register Person Info" style="html=1;verticalAlign=bottom;endArrow=block;exitX=1;exitY=0.2;exitDx=0;exitDy=0;exitPerimeter=0;" edge="1" parent="1" source="xruO2TvsmoogrMhLgpVZ-5" target="xruO2TvsmoogrMhLgpVZ-6">
          <mxGeometry width="80" relative="1" as="geometry">
            <mxPoint x="420" y="650" as="sourcePoint" />
            <mxPoint x="500" y="650" as="targetPoint" />
          </mxGeometry>
        </mxCell>
        <mxCell id="xruO2TvsmoogrMhLgpVZ-22" value="Return Register Id" style="html=1;verticalAlign=bottom;endArrow=block;entryX=1.2;entryY=0.445;entryDx=0;entryDy=0;entryPerimeter=0;" edge="1" parent="1" source="xruO2TvsmoogrMhLgpVZ-7" target="xruO2TvsmoogrMhLgpVZ-5">
          <mxGeometry width="80" relative="1" as="geometry">
            <mxPoint x="420" y="650" as="sourcePoint" />
            <mxPoint x="500" y="650" as="targetPoint" />
          </mxGeometry>
        </mxCell>
        <mxCell id="xruO2TvsmoogrMhLgpVZ-23" value="Person Face and Register Id" style="html=1;verticalAlign=bottom;endArrow=block;" edge="1" parent="1" target="xruO2TvsmoogrMhLgpVZ-8">
          <mxGeometry width="80" relative="1" as="geometry">
            <mxPoint x="480" y="650" as="sourcePoint" />
            <mxPoint x="500" y="650" as="targetPoint" />
          </mxGeometry>
        </mxCell>
        <mxCell id="xruO2TvsmoogrMhLgpVZ-24" value="Return Result Register" style="html=1;verticalAlign=bottom;endArrow=block;exitX=0.1;exitY=0.963;exitDx=0;exitDy=0;exitPerimeter=0;" edge="1" parent="1" source="xruO2TvsmoogrMhLgpVZ-9" target="xruO2TvsmoogrMhLgpVZ-4">
          <mxGeometry width="80" relative="1" as="geometry">
            <mxPoint x="420" y="650" as="sourcePoint" />
            <mxPoint x="500" y="650" as="targetPoint" />
          </mxGeometry>
        </mxCell>
      </root>
    </mxGraphModel>
  </diagram>
</mxfile>
